<?xml version="1.0" standalone="no"?>
<!DOCTYPE svg PUBLIC "-//W3C//DTD SVG 20010904//EN"
 "http://www.w3.org/TR/2001/REC-SVG-20010904/DTD/svg10.dtd">
<svg version="1.0" xmlns="http://www.w3.org/2000/svg"
 width="1642.000000pt" height="351.000000pt" viewBox="0 0 1642.000000 351.000000"
 preserveAspectRatio="xMidYMid meet">

<g transform="translate(0.000000,351.000000) scale(0.100000,-0.100000)"
fill="#ffffff" stroke="none">
<path d="M0 2675 l0 -835 835 0 835 0 0 835 0 835 -835 0 -835 0 0 -835z"/>
<path d="M1840 2675 l0 -835 835 0 835 0 0 835 0 835 -835 0 -835 0 0 -835z"/>
<path d="M15270 2960 c-131 -16 -239 -70 -328 -164 -97 -103 -130 -203 -139
-427 l-6 -149 -119 0 -118 0 0 -150 0 -150 120 0 120 0 0 -610 0 -610 185 0
185 0 0 610 0 610 259 0 259 0 4 -447 c4 -383 7 -457 22 -507 37 -131 116
-225 224 -267 80 -31 260 -38 369 -14 122 27 113 13 113 185 0 83 -2 150 -5
150 -3 0 -24 -9 -47 -21 -89 -45 -204 -34 -256 25 -47 54 -52 99 -52 516 l0
380 180 0 180 0 0 150 0 150 -180 0 -180 0 -2 223 -3 223 -182 -55 -183 -55 0
-168 0 -168 -261 0 -262 0 6 133 c5 140 15 182 55 236 58 78 188 93 325 36 16
-7 17 4 17 153 l0 160 -47 10 c-71 16 -179 21 -253 12z"/>
<path d="M7291 2850 c-50 -12 -112 -60 -135 -105 -15 -29 -21 -58 -21 -107 0
-58 4 -72 30 -109 43 -61 102 -89 185 -89 83 0 142 28 185 89 27 38 30 51 30
116 0 65 -3 78 -30 117 -17 23 -49 53 -70 65 -46 25 -125 36 -174 23z"/>
<path d="M4550 1755 l0 -1055 175 0 176 0 -3 828 -3 827 22 -70 c12 -38 163
-411 335 -828 l312 -758 124 3 124 3 314 775 c173 426 320 796 327 823 10 38
11 -116 9 -778 l-4 -825 186 0 186 0 0 1055 0 1055 -252 -2 -251 -3 -267 -651
c-147 -359 -289 -713 -316 -788 l-48 -136 -41 117 c-23 65 -162 421 -310 791
l-269 672 -263 0 -263 0 0 -1055z"/>
<path d="M8375 2233 c-218 -46 -393 -167 -498 -345 -86 -144 -131 -379 -109
-566 21 -183 88 -327 207 -448 79 -79 168 -134 283 -172 71 -24 91 -26 257
-27 198 0 271 12 375 63 l55 27 3 168 c1 92 1 167 -2 167 -2 0 -30 -16 -62
-35 -116 -70 -229 -100 -344 -92 -177 12 -310 113 -371 282 -31 83 -33 293 -5
375 29 85 51 123 106 183 154 169 419 180 648 27 l32 -22 0 180 0 181 -54 20
c-134 50 -374 66 -521 34z"/>
<path d="M10700 2236 c-240 -51 -408 -175 -510 -376 -86 -170 -112 -427 -64
-643 9 -39 36 -115 61 -167 38 -79 59 -108 127 -175 89 -89 170 -137 296 -177
67 -20 94 -23 255 -23 205 0 256 10 390 74 187 89 316 252 376 476 18 67 22
107 22 250 0 198 -16 275 -84 415 -79 159 -238 285 -424 336 -82 22 -356 28
-445 10z m295 -301 c121 -31 215 -125 257 -256 13 -42 22 -103 25 -180 16
-351 -135 -543 -417 -527 -197 12 -321 126 -366 338 -22 102 -14 270 17 363
70 212 266 318 484 262z"/>
<path d="M12221 2234 c-105 -22 -204 -75 -275 -146 -97 -99 -133 -197 -123
-343 12 -183 88 -282 292 -380 66 -31 156 -74 200 -95 44 -21 94 -53 110 -70
27 -28 30 -38 30 -96 0 -61 -2 -68 -32 -94 -45 -40 -101 -53 -208 -48 -111 6
-226 43 -325 104 l-70 43 0 -179 0 -180 38 -16 c135 -57 406 -81 557 -50 300
62 465 296 401 567 -30 131 -118 221 -295 305 -318 150 -326 157 -326 256 0
56 2 62 37 93 20 18 53 38 75 44 93 26 247 0 364 -61 35 -18 67 -34 72 -36 4
-2 7 73 7 166 l0 170 -48 16 c-136 45 -350 59 -481 30z"/>
<path d="M13594 2239 c-319 -53 -528 -256 -600 -584 -25 -110 -22 -328 5 -440
51 -210 176 -376 351 -463 136 -67 186 -77 400 -77 183 0 186 1 279 33 342
119 514 400 498 812 -9 242 -66 389 -202 526 -109 109 -204 159 -363 190 -80
15 -285 17 -368 3z m318 -318 c70 -27 146 -97 182 -168 40 -79 56 -164 56
-294 0 -244 -72 -391 -227 -462 -40 -18 -66 -22 -158 -22 -93 0 -119 4 -170
24 -185 74 -280 318 -230 594 32 183 137 308 292 347 60 15 191 5 255 -19z"/>
<path d="M9813 2221 c-89 -33 -161 -97 -212 -191 l-31 -55 0 123 0 122 -180 0
-180 0 0 -760 0 -760 180 0 180 0 0 414 c0 452 6 519 55 615 58 115 151 181
256 181 60 0 148 -22 186 -47 l23 -15 0 185 c0 138 -3 188 -12 194 -7 4 -58 9
-113 10 -80 3 -111 -1 -152 -16z"/>
<path d="M7160 1460 l0 -760 185 0 185 0 0 760 0 760 -185 0 -185 0 0 -760z"/>
<path d="M0 835 l0 -835 835 0 835 0 0 835 0 835 -835 0 -835 0 0 -835z"/>
<path d="M1840 835 l0 -835 835 0 835 0 0 835 0 835 -835 0 -835 0 0 -835z"/>
</g>
</svg>
